<svg width="21" height="18" viewBox="0 0 21 18" fill="none" xmlns="http://www.w3.org/2000/svg">
<g id="Polygon 1">
<mask id="path-1-inside-1_105_231" fill="white">
<path d="M10.5 18L0.540707 0L20.4593 0L10.5 18Z"/>
</mask>
<path d="M10.5 18L0.540707 0L20.4593 0L10.5 18Z" fill="#BBB7B7"/>
<path d="M10.5 18L-102.374 80.4528L10.5 284.457L123.374 80.4528L10.5 18ZM0.540707 0L0.540707 -129L-218.263 -129L-112.334 62.4528L0.540707 0ZM20.4593 0L133.334 62.4528L239.263 -129L20.4593 -129L20.4593 0ZM123.374 -44.4528L113.415 -62.4528L-112.334 62.4528L-102.374 80.4528L123.374 -44.4528ZM0.540707 129H20.4593L20.4593 -129H0.540707L0.540707 129ZM-92.4152 -62.4528L-102.374 -44.4528L123.374 80.4528L133.334 62.4528L-92.4152 -62.4528Z" fill="black" mask="url(#path-1-inside-1_105_231)"/>
</g>
</svg>
